PathFileType	4	(X/Y/Z)	C:/Users/beibeiliu/ov580/test_trc/User1\sequence.11_training_dense_right.trc
DataRate	CameraRate	NumFrames	NumMarkers	Units	OrigDataRate	OrigDataStartFrame	OrigNumFrames
120	120	16	19	mm	120	43	341
Frame#	Time	ThumbCMC			ThumbMCP			ThumbIP			ThumbTip			IndexMCP			IndexPIP			IndexTip			MiddleMCP			MiddlePIP			MiddleTip			RingMCP			RingPIP			RingTip			PinkyMCP			PinkyPIP			PinkyTip			BackHand1			BackHand2			BackHand3	
		X0	Y0	Z0	X1	Y1	Z1	X2	Y2	Z2	X3	Y3	Z3	X4	Y4	Z4	X5	Y5	Z5	X6	Y6	Z6	X7	Y7	Z7	X8	Y8	Z8	X9	Y9	Z9	X10	Y10	Z10	X11	Y11	Z11	X12	Y12	Z12	X13	Y13	Z13	X14	Y14	Z14	X15	Y15	Z15	X16	Y16	Z16	X17	Y17	Z17	X18	Y18	Z18	
42	0.35	98.6436	103.058	47.9656	85.3129	86.4922	16.8141	84.0083	85.0871	-15.7087	94.3502	78.6684	-42.5549	106.519	149.071	-24.3281	105.518	152.606	-47.2655	104.33	153.058	-74.6365	126.349	123.357	-40.3014	117.775	93.1819	-47.6083	113.99	75.3158	-10.4236	141.9	104.672	-31.1204	128.91	73.387	-27.4852	123.272	68.957	3.57274	166.59	94.3631	-21.0071	144.755	72.5732	-17.1889	135.66	84.1809	14.9633	160.301	128.973	27.2442	164.769	119.887	56.8632	126.739	133.161	44.9917	
43	0.358333	95.9926	106.667	48.152	86.6915	91.902	14.863	84.8061	89.3955	-14.3284	93.3346	83.5473	-38.9636	108.397	156.143	-16.7078	101.951	166.249	-46.8347	101.581	166.753	-70.6797	127.745	138.719	-34.3346	113.253	111.744	-54.4149	107.796	83.7731	-29.1508	143.665	114.06	-32.136	126.006	81.4946	-30.3443	125.23	72.6654	-0.436421	165.036	99.5746	-24.2131	141.284	81.8613	-19.7758	133.703	87.983	11.1108	160.638	131.779	28.3028	165.21	122.282	58.0784	131.96	134.149	49.2885	
44	0.366667	100.458	110.703	45.0065	87.1862	95.7573	14.4894	86.8435	93.275	-15.1634	96.674	87.5093	-41.2501	106.425	166.088	-16.9935	102.117	173.614	-39.7803	103.845	175.972	-69.8671	129.392	151.281	-34.7658	119.794	130.606	-61.3652	106.004	96.4613	-51.6769	142.127	116.867	-34.5816	124.044	87.8537	-33.8831	121.823	77.0562	-4.61111	161.173	106.387	-23.2303	139.171	86.4216	-20.3289	129.182	97.4159	6.60777	162.545	136.719	25.2859	166.397	119.838	60.2918	130.873	137.267	51.1428	
45	0.375	100.119	110.815	46.2247	87.0435	97.8505	10.3623	87.3303	96.3879	-19.5296	102.24	91.2402	-45.6452	107.942	165.753	-11.6604	99.7468	176.336	-37.3228	99.0816	182.332	-67.0359	131.014	160.652	-29.5869	123.335	152.968	-60.6645	111.671	118.411	-76.0892	142.654	125.138	-30.5701	124.848	93.324	-36.097	118.899	79.2189	-7.63268	163.606	106.219	-24.4317	139.646	93.9658	-24.0644	126.055	98.4531	7.48747	159.305	137.08	28.7903	168.829	122.255	62.0341	127.491	140.92	50.7578	
46	0.383333	96.3427	109.309	46.398	88.7149	97.4851	10.3653	92.27	97.2476	-23.2084	107.774	93.1345	-41.4448	101.331	166.287	-11.2793	100.524	176.455	-36.6584	99.9411	185.366	-65.9641	132.329	163.53	-26.4203	126.917	163.348	-59.3911	121.489	144.664	-87.9898	143.411	128.893	-30.3217	126.815	96.998	-37.9413	119.771	81.7854	-9.43797	165.727	107.863	-23.6512	138.426	92.8871	-20.0717	125.665	105.939	3.93553	161.887	139.068	26.0662	166.412	126.778	59.6122	129.398	140.281	51.4054	
47	0.391667	100.222	107.595	49.1964	87.3125	95.5979	8.77972	92.8099	95.7568	-21.0053	113.836	96.0444	-40.8762	99.7433	164.902	-9.97005	101.153	176.907	-36.7079	96.3576	185.918	-59.6204	135.137	164.271	-27.276	130.787	168.168	-59.03	127.477	163.449	-90.34	146.081	129.353	-29.687	131.746	95.2692	-37.6216	122.49	82.4636	-11.2246	166.051	111.42	-21.1888	140.745	98.3764	-22.4673	125.234	106.284	3.35147	161.765	140.554	31.308	162.873	126.468	65.0822	127.162	138.586	55.3989	
48	0.4	98.1428	106.533	48.9549	87.8019	93.1069	10.6911	95.7711	95.2173	-21.46	112.331	91.8126	-40.4283	102.317	166.202	-15.2922	96.9795	174.047	-33.0379	100.408	183.532	-58.0146	136.806	162.533	-27.2007	132.883	167.887	-54.6325	133.515	168.763	-86.2879	144.891	128.299	-30.861	133.273	97.9621	-39.1658	124.815	80.9624	-5.86946	168.378	111.127	-18.6473	144.511	91.3809	-21.8594	127.414	103.62	3.19818	161.679	137.978	32.909	165.181	127.619	63.1967	127.138	139.083	54.7529	
49	0.408333	101.084	107.062	47.8841	91.3582	94.9119	7.71956	95.9354	91.7175	-18.6666	115.481	90.8598	-40.9043	104.538	161.015	-13.4227	100.38	172.692	-39.7518	100.842	183.036	-62.618	134.537	160.346	-23.232	139.328	165.272	-56.9678	138.391	166.81	-83.5536	149.054	123.063	-31.6608	131.959	95.9313	-38.7301	124.531	79.3309	-6.21358	167.993	111.53	-18.5154	146.696	89.1867	-21.6315	128.462	98.1914	2.8534	161.81	137.805	30.8475	162.597	125.263	62.7824	128.767	139.035	54.9982	
50	0.416667	97.802	104.579	46.1032	90.2206	88.1709	8.92684	97.6097	87.3939	-17.9999	116.818	86.0332	-42.6187	102.308	159.27	-15.4617	99.0645	168.257	-38.4311	100.445	177.17	-60.5567	136.194	157.803	-29.3455	136.158	160.95	-53.9015	143.91	161.822	-84.3078	150.674	119.361	-31.9211	135.488	90.7665	-38.3956	128.293	75.891	-5.41925	167.893	106.45	-19.6844	145.442	88.3484	-22.4956	134.12	89.0292	7.15911	158.775	136.689	28.4634	162.992	125.771	62.4591	129.874	135.187	53.9164	
51	0.425	97.4132	99.6538	48.5157	93.7774	85.8333	8.08291	102.163	81.5177	-17.2118	119.938	78.2986	-40.3486	105.889	150.975	-17.112	102.379	157.525	-40.6307	98.5203	169.092	-64.6672	138.099	148.898	-27.9097	138.105	152.45	-55.9562	140.452	155.858	-88.8691	153.656	112.959	-31.7474	134.03	81.9165	-36.6616	130.642	70.7142	-4.33071	167.999	100.106	-21.1291	152.154	77.4884	-20.9807	136.92	83.6084	11.8802	160.337	132.61	27.0022	166.948	121.821	62.1256	128.16	134.727	51.6786	
52	0.433333	98.3808	98.02	45.5251	93.7496	76.8141	8.36915	106.621	73.2344	-17.9821	121.751	65.1011	-38.5395	107.817	141.017	-27.5133	101.484	147.604	-50.1768	105.355	155.076	-76.8663	142.651	137.868	-36.6453	139.815	138.228	-61.7277	148.275	138.367	-91.9809	152.713	101.883	-34.9466	140.272	71.5111	-35.9257	134.005	62.6221	-2.28086	170.112	91.7319	-19.3559	152.295	68.4116	-16.9514	140.66	74.1693	13.112	164.215	126.581	25.447	162.744	119.009	63.0779	130.768	129.552	46.1709	
53	0.441667	99.8247	93.277	43.4631	93.479	68.9136	8.48187	106.174	61.1662	-15.9209	128.464	53.4834	-37.8937	111.226	126.726	-31.3285	109.836	128.671	-55.0472	111.204	132.476	-81.0798	144.019	124.005	-40.0943	149.269	121.659	-69.9579	156.391	119.006	-94.8579	158.342	85.4531	-35.6461	146.01	55.8789	-32.9499	132.815	52.4085	0.797285	175.207	77.9351	-16.7432	158.847	53.1729	-11.7624	140.994	63.2684	15.1267	165.524	119.504	24.1987	163.735	117.253	58.6102	128.772	127.094	40.6763	
54	0.45	103.541	87.9577	41.0653	97.8684	62.7817	10.731	110.428	53.1598	-17.6448	128.127	42.1521	-32.2712	114.491	114.81	-40.8294	110.694	115.832	-65.1286	113.388	117.27	-86.657	149.029	111.361	-45.8448	153.691	107.073	-73.9868	158.361	103.336	-97.8309	158.07	73.339	-34.9657	150.021	42.9193	-29.3579	137.123	39.9076	0.976088	174.986	64.4376	-16.8341	157.312	44.4988	-6.05367	142.399	56.6194	22.845	163.657	112.271	17.3224	165.314	113.141	55.3505	129.612	122.014	32.7637	
55	0.458333	105.155	83.5477	39.3097	100.738	58.5916	7.9722	110.398	45.9773	-14.7856	133.71	37.5137	-31.5481	112.743	106.816	-40.736	113.302	106.278	-65.4113	114.535	107.432	-88.1178	150.247	103.589	-46.2269	154.148	98.3374	-72.6103	163.447	92.7432	-102.015	163.648	68.1876	-32.8003	145.976	36.4683	-27.5462	140.712	33.3867	5.22812	176.831	61.4094	-14.9918	160.37	36.9418	-3.44174	140.958	49.7029	19.4695	165.935	108.969	15.3417	164.771	109.955	53.816	127.379	116.562	31.2344	
56	0.466667	104.854	81.393	40.0193	100.39	53.9557	9.44461	112.716	44.9139	-15.0727	132.801	34.3089	-31.2007	114.475	103.057	-40.5801	110.302	102.172	-61.8271	111.886	103.709	-89.9177	149.502	100.468	-45.1136	155.006	93.9929	-69.5256	161.033	88.1233	-99.2279	160.5	66.8383	-32.3981	152.086	32.4609	-25.9736	142.936	31.8023	5.15492	175.351	59.2829	-15.1299	162.209	34.3577	-3.67254	146.058	45.4177	23.2426	166.593	105.574	18.1586	164.596	109.931	52.9767	130.748	113.323	31.5311	
57	0.475	103.818	79.6639	42.5382	100.133	53.5849	8.41392	112.653	42.491	-18.2007	131.795	34.9341	-28.6074	110.924	103.077	-36.728	110.894	102.887	-62.3996	112.663	101.996	-89.9122	150.356	99.2122	-43.9847	153.319	94.2388	-72.2611	161.555	87.0635	-97.4064	163.601	66.5179	-30.8493	152.207	34.0835	-26.5703	138.446	34.4498	5.77781	178.536	56.6579	-14.5764	160.188	37.4646	-5.19911	143.55	47.6998	24.4355	162.215	107.133	19.0053	164.431	109.897	51.2414	130.429	113.003	33.0611	
